<svg width="167" height="63" viewBox="0 0 167 63" fill="none" xmlns="http://www.w3.org/2000/svg">
<g clip-path="url(#clip0_9_3)">
<path d="M35.2083 26.0833V7.125L10.8333 36.9167H29.7917V55.875L54.1667 26.0833H35.2083Z" fill="#FF981F"/>
</g>
<path d="M75.656 31.31C74.9326 31.31 74.23 31.2067 73.548 31C72.866 30.7933 72.246 30.5143 71.688 30.163C71.13 29.791 70.665 29.3777 70.293 28.923C69.921 28.4477 69.6833 27.962 69.58 27.466L70.572 27.094L70.355 30.938H66.201V8.06H70.603V18.445L69.766 18.104C69.89 17.608 70.1276 17.1327 70.479 16.678C70.8303 16.2027 71.2746 15.7893 71.812 15.438C72.3493 15.066 72.9383 14.7767 73.579 14.57C74.2196 14.3633 74.881 14.26 75.563 14.26C76.989 14.26 78.26 14.632 79.376 15.376C80.492 16.0993 81.3703 17.1017 82.011 18.383C82.6723 19.6643 83.003 21.1317 83.003 22.785C83.003 24.4383 82.6826 25.9057 82.042 27.187C81.4013 28.4683 80.523 29.481 79.407 30.225C78.3116 30.9483 77.0613 31.31 75.656 31.31ZM74.602 27.559C75.4286 27.559 76.1416 27.3627 76.741 26.97C77.361 26.5567 77.8466 25.9987 78.198 25.296C78.5493 24.5727 78.725 23.7357 78.725 22.785C78.725 21.855 78.5493 21.0283 78.198 20.305C77.8673 19.5817 77.392 19.0237 76.772 18.631C76.152 18.2383 75.4286 18.042 74.602 18.042C73.7753 18.042 73.052 18.2383 72.432 18.631C71.812 19.0237 71.3263 19.5817 70.975 20.305C70.6236 21.0283 70.448 21.855 70.448 22.785C70.448 23.7357 70.6236 24.5727 70.975 25.296C71.3263 25.9987 71.812 26.5567 72.432 26.97C73.052 27.3627 73.7753 27.559 74.602 27.559ZM94.8888 31.31C93.1115 31.31 91.5615 30.9483 90.2388 30.225C88.9161 29.5017 87.8828 28.5097 87.1388 27.249C86.3948 25.9883 86.0228 24.5417 86.0228 22.909C86.0228 21.6483 86.2295 20.491 86.6428 19.437C87.0561 18.383 87.6348 17.4737 88.3788 16.709C89.1228 15.9237 90.0011 15.3243 91.0138 14.911C92.0471 14.477 93.1631 14.26 94.3618 14.26C95.4778 14.26 96.5111 14.4667 97.4618 14.88C98.4125 15.2727 99.2288 15.841 99.9108 16.585C100.613 17.3083 101.151 18.166 101.523 19.158C101.895 20.15 102.06 21.235 102.019 22.413L101.988 23.777H88.8128L88.0998 21.08H98.3608L97.8648 21.638V20.956C97.8235 20.398 97.6375 19.8917 97.3068 19.437C96.9968 18.9823 96.5938 18.631 96.0978 18.383C95.6018 18.135 95.0438 18.011 94.4238 18.011C93.5145 18.011 92.7395 18.1867 92.0988 18.538C91.4788 18.8893 91.0035 19.406 90.6728 20.088C90.3421 20.77 90.1768 21.5967 90.1768 22.568C90.1768 23.56 90.3835 24.4177 90.7968 25.141C91.2308 25.8643 91.8301 26.4327 92.5948 26.846C93.3801 27.2387 94.2998 27.435 95.3538 27.435C96.0771 27.435 96.7385 27.3213 97.3378 27.094C97.9371 26.8667 98.5778 26.474 99.2598 25.916L101.368 28.861C100.768 29.3983 100.107 29.853 99.3838 30.225C98.6605 30.5763 97.9165 30.845 97.1518 31.031C96.3871 31.217 95.6328 31.31 94.8888 31.31ZM72.339 55.31C70.975 55.31 69.7453 54.938 68.65 54.194C67.5546 53.45 66.6866 52.4373 66.046 51.156C65.4053 49.8747 65.085 48.4073 65.085 46.754C65.085 45.1007 65.4053 43.6437 66.046 42.383C66.7073 41.1017 67.596 40.0993 68.712 39.376C69.828 38.632 71.099 38.26 72.525 38.26C73.331 38.26 74.0646 38.384 74.726 38.632C75.408 38.8593 75.997 39.1797 76.493 39.593C77.0096 40.0063 77.4436 40.4817 77.795 41.019C78.1463 41.5563 78.3943 42.135 78.539 42.755L77.609 42.6V38.601H81.98V55H77.547V51.063L78.539 50.97C78.3736 51.5487 78.105 52.0963 77.733 52.613C77.361 53.1297 76.896 53.5947 76.338 54.008C75.8006 54.4007 75.191 54.721 74.509 54.969C73.827 55.1963 73.1036 55.31 72.339 55.31ZM73.548 51.497C74.3746 51.497 75.098 51.3007 75.718 50.908C76.338 50.5153 76.8133 49.9677 77.144 49.265C77.4953 48.5417 77.671 47.7047 77.671 46.754C77.671 45.824 77.4953 45.0077 77.144 44.305C76.8133 43.6023 76.338 43.0547 75.718 42.662C75.098 42.2487 74.3746 42.042 73.548 42.042C72.742 42.042 72.029 42.2487 71.409 42.662C70.8096 43.0547 70.3343 43.6023 69.983 44.305C69.6316 45.0077 69.456 45.824 69.456 46.754C69.456 47.7047 69.6316 48.5417 69.983 49.265C70.3343 49.9677 70.8096 50.5153 71.409 50.908C72.029 51.3007 72.742 51.497 73.548 51.497ZM94.2984 55.31C92.7277 55.31 91.3224 54.938 90.0824 54.194C88.8424 53.45 87.8607 52.4373 87.1374 51.156C86.4347 49.8747 86.0834 48.4177 86.0834 46.785C86.0834 45.173 86.4347 43.7263 87.1374 42.445C87.8607 41.143 88.8424 40.12 90.0824 39.376C91.3224 38.632 92.7277 38.26 94.2984 38.26C95.7657 38.26 97.109 38.5287 98.3284 39.066C99.5477 39.6033 100.498 40.3473 101.18 41.298L98.7624 44.212C98.473 43.8193 98.1114 43.468 97.6774 43.158C97.2434 42.8273 96.768 42.569 96.2514 42.383C95.7554 42.197 95.2387 42.104 94.7014 42.104C93.854 42.104 93.0997 42.3107 92.4384 42.724C91.7977 43.1167 91.2914 43.6643 90.9194 44.367C90.5474 45.0697 90.3614 45.8757 90.3614 46.785C90.3614 47.6737 90.5474 48.4693 90.9194 49.172C91.312 49.854 91.839 50.412 92.5004 50.846C93.1617 51.2593 93.9057 51.466 94.7324 51.466C95.2697 51.466 95.776 51.3937 96.2514 51.249C96.7267 51.0837 97.171 50.846 97.5844 50.536C98.0184 50.226 98.411 49.854 98.7624 49.42L101.149 52.334C100.447 53.2227 99.4754 53.946 98.2354 54.504C96.9954 55.0413 95.683 55.31 94.2984 55.31ZM106.326 55V34.447H110.728V55H106.326ZM103.257 42.538V38.601H114.076V42.538H103.257ZM118.092 55V38.601H122.494V55H118.092ZM120.262 35.222C119.415 35.222 118.754 35.0153 118.278 34.602C117.803 34.1887 117.565 33.5997 117.565 32.835C117.565 32.1323 117.803 31.564 118.278 31.13C118.774 30.6753 119.436 30.448 120.262 30.448C121.11 30.448 121.771 30.665 122.246 31.099C122.722 31.5123 122.959 32.091 122.959 32.835C122.959 33.5583 122.711 34.137 122.215 34.571C121.74 35.005 121.089 35.222 120.262 35.222ZM133.117 55L126.235 38.601H131.071L135.442 50.846L134.419 51.032L139.007 38.601H143.719L136.496 55H133.117ZM154.509 55.31C152.732 55.31 151.182 54.9483 149.859 54.225C148.537 53.5017 147.503 52.5097 146.759 51.249C146.015 49.9883 145.643 48.5417 145.643 46.909C145.643 45.6483 145.85 44.491 146.263 43.437C146.677 42.383 147.255 41.4737 147.999 40.709C148.743 39.9237 149.622 39.3243 150.634 38.911C151.668 38.477 152.784 38.26 153.982 38.26C155.098 38.26 156.132 38.4667 157.082 38.88C158.033 39.2727 158.849 39.841 159.531 40.585C160.234 41.3083 160.771 42.166 161.143 43.158C161.515 44.15 161.681 45.235 161.639 46.413L161.608 47.777H148.433L147.72 45.08H157.981L157.485 45.638V44.956C157.444 44.398 157.258 43.8917 156.927 43.437C156.617 42.9823 156.214 42.631 155.718 42.383C155.222 42.135 154.664 42.011 154.044 42.011C153.135 42.011 152.36 42.1867 151.719 42.538C151.099 42.8893 150.624 43.406 150.293 44.088C149.963 44.77 149.797 45.5967 149.797 46.568C149.797 47.56 150.004 48.4177 150.417 49.141C150.851 49.8643 151.451 50.4327 152.215 50.846C153.001 51.2387 153.92 51.435 154.974 51.435C155.698 51.435 156.359 51.3213 156.958 51.094C157.558 50.8667 158.198 50.474 158.88 49.916L160.988 52.861C160.389 53.3983 159.728 53.853 159.004 54.225C158.281 54.5763 157.537 54.845 156.772 55.031C156.008 55.217 155.253 55.31 154.509 55.31Z" fill="#F7FFF7"/>
<path d="M107.814 31.341C106.967 31.341 106.305 31.1033 105.83 30.628C105.375 30.1527 105.148 29.4707 105.148 28.582C105.148 27.7553 105.396 27.0837 105.892 26.567C106.388 26.0503 107.029 25.792 107.814 25.792C108.661 25.792 109.323 26.04 109.798 26.536C110.273 27.0113 110.511 27.6933 110.511 28.582C110.511 29.388 110.263 30.0493 109.767 30.566C109.271 31.0827 108.62 31.341 107.814 31.341Z" fill="#FF981F"/>
<defs>
<clipPath id="clip0_9_3">
<rect width="48.3917" height="44.101" fill="white" transform="translate(0.350037 24.291) rotate(-30)"/>
</clipPath>
</defs>
</svg>
